<?xml version="1.0" standalone="no"?>
<!DOCTYPE svg PUBLIC "-//W3C//DTD SVG 20010904//EN"
 "http://www.w3.org/TR/2001/REC-SVG-20010904/DTD/svg10.dtd">
<svg version="1.0" xmlns="http://www.w3.org/2000/svg"
 width="500.000000pt" height="500.000000pt" viewBox="0 0 500.000000 500.000000"
 preserveAspectRatio="xMidYMid meet">

<g transform="translate(0.000000,500.000000) scale(0.100000,-0.100000)"
fill="#000000" stroke="none">
<path d="M567 3278 c-12 -10 -19 -50 -31 -186 -21 -233 -21 -252 4 -252 13 0
22 9 26 28 36 166 64 230 126 298 65 71 101 84 241 84 l117 0 0 -275 0 -275
115 0 115 0 0 275 0 275 118 0 c107 0 123 -2 170 -26 87 -43 156 -157 189
-306 13 -62 20 -78 34 -78 10 0 20 3 22 8 3 4 -3 99 -13 211 -15 172 -21 207
-36 218 -26 19 -1172 19 -1197 1z"/>
<path d="M1797 3283 c-4 -3 -7 -12 -7 -19 0 -10 26 -14 101 -16 l102 -3 92
-270 93 -270 106 -3 c59 -1 106 1 106 6 0 9 -159 485 -175 525 -7 16 2 17 99
17 99 0 106 1 106 20 0 20 -7 20 -308 20 -170 0 -312 -3 -315 -7z"/>
<path d="M2807 3283 c-4 -3 -7 -12 -7 -20 0 -10 23 -13 101 -13 99 0 100 0 94
-22 -4 -13 -43 -134 -86 -269 -44 -135 -79 -249 -79 -252 0 -4 11 -7 23 -7 19
0 26 8 36 43 7 23 46 147 87 275 l75 232 85 0 c77 0 84 2 84 20 0 19 -7 20
-203 20 -112 0 -207 -3 -210 -7z"/>
<path d="M3260 3256 c0 -12 18 -16 98 -18 l97 -3 3 -267 2 -268 110 0 110 0 0
270 0 270 123 0 c226 -1 322 -27 417 -116 62 -58 121 -171 147 -281 15 -65 18
-120 18 -333 -1 -230 -3 -264 -23 -344 -46 -185 -135 -308 -257 -356 -54 -22
-79 -25 -242 -28 l-183 -4 0 261 0 261 -110 0 -110 0 0 -260 0 -260 -100 0
c-94 0 -100 -1 -100 -21 0 -20 1 -20 408 -17 394 4 409 5 477 27 240 80 386
234 461 488 32 110 43 294 24 410 -45 281 -218 490 -475 574 -68 23 -84 23
-482 27 -365 3 -413 1 -413 -12z"/>
<path d="M1100 2545 c0 -10 10 -15 30 -15 l30 0 0 -70 c0 -63 2 -70 20 -70 18
0 20 7 20 70 0 68 1 70 25 70 16 0 25 6 25 15 0 12 -15 15 -75 15 -60 0 -75
-3 -75 -15z"/>
<path d="M1375 2535 c-56 -55 -16 -145 64 -145 83 0 125 87 70 146 -32 34
-100 34 -134 -1z m103 -17 c20 -20 15 -76 -7 -88 -41 -21 -81 1 -81 45 0 45
58 73 88 43z"/>
<path d="M1650 2475 c0 -78 2 -85 19 -85 17 0 20 8 23 51 l3 50 39 -50 c22
-30 46 -51 57 -51 17 0 19 8 19 85 0 78 -2 85 -19 85 -17 0 -20 -8 -23 -51
l-3 -50 -39 50 c-22 30 -46 51 -57 51 -17 0 -19 -8 -19 -85z"/>
<path d="M1920 2554 c0 -4 14 -29 30 -56 17 -26 30 -62 30 -78 0 -23 4 -30 20
-30 16 0 20 7 20 31 0 17 14 56 31 85 28 49 29 54 11 54 -11 0 -26 -14 -38
-35 -10 -19 -21 -35 -24 -35 -3 0 -14 16 -24 35 -11 21 -27 35 -38 35 -10 0
-18 -3 -18 -6z"/>
<path d="M2333 2528 c53 -126 60 -138 79 -138 14 0 27 17 47 63 43 96 46 107
24 107 -13 0 -26 -18 -44 -57 l-26 -58 -26 58 c-19 43 -31 57 -47 57 -19 0
-19 -2 -7 -32z"/>
<path d="M2651 2538 c-5 -13 -21 -49 -35 -81 -31 -69 -31 -67 -7 -67 11 0 23
9 26 20 5 16 15 20 47 20 31 0 41 -4 45 -20 3 -13 14 -20 29 -20 23 0 23 0
-15 83 -28 62 -43 83 -59 85 -15 2 -25 -4 -31 -20z m47 -53 c11 -23 10 -25
-14 -25 -20 0 -25 4 -20 16 3 9 6 20 6 25 0 18 17 8 28 -16z"/>
<path d="M2880 2475 c0 -78 2 -85 20 -85 15 0 20 7 20 25 0 18 5 25 20 25 11
0 27 -11 36 -25 9 -14 25 -25 36 -25 20 0 20 1 3 26 -15 23 -15 27 -1 43 23
25 20 67 -6 85 -14 10 -44 16 -75 16 l-53 0 0 -85z m105 25 c0 -21 -5 -26 -32
-28 -31 -3 -33 -1 -33 28 0 29 2 31 33 28 27 -2 32 -7 32 -28z"/>
<path d="M3165 2535 c-54 -54 -16 -145 60 -145 55 0 75 15 75 55 0 28 -4 35
-20 35 -16 0 -20 -7 -20 -30 0 -25 -4 -30 -23 -30 -48 0 -74 61 -41 94 18 18
60 21 69 6 5 -8 11 -7 21 1 24 19 -3 39 -53 39 -33 0 -50 -6 -68 -25z"/>
<path d="M3439 2478 c-30 -70 -34 -84 -20 -87 8 -2 22 6 29 18 20 29 88 30 97
1 4 -11 15 -20 27 -20 12 0 18 5 15 13 -2 6 -19 45 -37 85 -26 57 -37 72 -54
72 -18 0 -29 -16 -57 -82z m81 -10 c0 -5 -11 -8 -24 -8 -24 0 -24 2 -14 31
l11 32 13 -24 c7 -13 13 -27 14 -31z"/>
<path d="M3701 2546 c-7 -8 -11 -27 -9 -43 2 -23 10 -29 43 -39 25 -7 41 -18
44 -29 3 -16 -2 -17 -43 -12 -35 5 -46 3 -46 -7 0 -17 22 -26 64 -26 46 0 68
20 64 55 -2 25 -10 32 -45 43 -58 19 -60 47 -4 39 27 -3 41 -1 45 8 7 20 -3
25 -54 25 -29 0 -52 -6 -59 -14z"/>
<path d="M1050 2035 l0 -264 -97 -3 c-84 -3 -98 -6 -101 -20 -3 -17 17 -18
312 -18 309 0 316 0 316 20 0 19 -7 20 -100 20 l-100 0 0 265 0 265 -115 0
-115 0 0 -265z"/>
<path d="M2329 2253 c10 -26 55 -159 100 -295 111 -334 99 -337 219 40 51 158
92 291 92 295 0 5 -10 7 -22 5 -19 -2 -28 -21 -60 -118 -20 -63 -38 -117 -38
-120 -1 -3 -20 49 -43 115 l-42 120 -112 3 -113 3 19 -48z"/>
<path d="M1460 1500 c0 -50 0 -50 33 -50 40 0 57 15 57 52 0 30 -23 48 -64 48
-24 0 -26 -3 -26 -50z m65 0 c0 -18 -6 -26 -22 -28 -20 -3 -23 1 -23 28 0 27
3 31 23 28 16 -2 22 -10 22 -28z"/>
<path d="M1670 1500 l0 -50 35 0 c19 0 35 5 35 10 0 6 -11 10 -25 10 -14 0
-25 5 -25 10 0 6 11 10 25 10 14 0 25 5 25 10 0 6 -11 10 -25 10 -14 0 -25 5
-25 10 0 6 11 10 25 10 14 0 25 5 25 10 0 6 -16 10 -35 10 l-35 0 0 -50z"/>
<path d="M1856 1528 c12 -39 34 -78 45 -78 8 0 49 80 49 96 0 16 -20 -1 -30
-26 -7 -16 -16 -30 -20 -30 -5 0 -13 14 -19 30 -12 35 -36 42 -25 8z"/>
<path d="M2060 1500 l0 -50 40 0 c22 0 40 5 40 10 0 6 -13 10 -30 10 -16 0
-30 5 -30 10 0 6 11 10 25 10 14 0 25 5 25 10 0 6 -11 10 -25 10 -14 0 -25 5
-25 10 0 6 14 10 31 10 17 0 28 4 24 10 -3 6 -22 10 -41 10 l-34 0 0 -50z"/>
<path d="M2250 1500 l0 -50 35 0 c19 0 35 5 35 10 0 6 -11 10 -25 10 -22 0
-25 4 -25 40 0 22 -4 40 -10 40 -5 0 -10 -22 -10 -50z"/>
<path d="M2446 1534 c-19 -18 -21 -55 -4 -72 7 -7 24 -12 38 -12 34 0 50 17
50 52 0 43 -53 64 -84 32z m59 -34 c0 -16 -6 -26 -19 -28 -25 -5 -39 12 -31
38 10 31 50 24 50 -10z"/>
<path d="M2650 1500 c0 -27 5 -50 10 -50 6 0 10 6 10 14 0 9 12 16 27 18 54 6
37 68 -18 68 -28 0 -29 -2 -29 -50z m58 13 c2 -8 -5 -13 -17 -13 -12 0 -21 6
-21 16 0 18 31 15 38 -3z"/>
<path d="M2850 1500 c0 -27 5 -50 10 -50 6 0 10 12 10 27 l0 27 16 -23 17 -24
18 24 19 24 0 -27 c0 -16 5 -28 10 -28 6 0 10 23 10 50 0 57 -12 64 -35 20 -9
-16 -18 -30 -20 -30 -2 0 -11 14 -20 30 -23 44 -35 37 -35 -20z"/>
<path d="M3080 1500 l0 -50 35 0 c19 0 35 5 35 10 0 6 -11 10 -25 10 -14 0
-25 5 -25 10 0 6 11 10 25 10 14 0 25 5 25 10 0 6 -11 10 -25 10 -14 0 -25 5
-25 10 0 6 11 10 25 10 14 0 25 5 25 10 0 6 -16 10 -35 10 l-35 0 0 -50z"/>
<path d="M3270 1500 c0 -27 5 -50 10 -50 6 0 10 12 10 27 l0 27 28 -27 c15
-15 31 -27 35 -27 4 0 7 23 7 50 0 28 -4 50 -10 50 -5 0 -10 -11 -10 -25 0
-14 -4 -25 -9 -25 -5 0 -16 11 -25 25 -25 38 -36 30 -36 -25z"/>
<path d="M3470 1540 c0 -5 7 -10 15 -10 11 0 15 -11 15 -40 0 -22 5 -40 10
-40 6 0 10 18 10 40 0 29 4 40 15 40 8 0 15 5 15 10 0 6 -18 10 -40 10 -22 0
-40 -4 -40 -10z"/>
</g>
</svg>
